<svg width="85" height="85" viewBox="0 0 85 85" fill="none" xmlns="http://www.w3.org/2000/svg">
<g clip-path="url(#clip0_866_19195)">
<path fill-rule="evenodd" clip-rule="evenodd" d="M42.5 4.42706C38.0383 4.42706 33.7593 6.19947 30.6044 9.35438C27.4495 12.5093 25.6771 16.7883 25.6771 21.25C25.6771 25.7117 27.4495 29.9907 30.6044 33.1456C33.7593 36.3005 38.0383 38.0729 42.5 38.0729C46.9617 38.0729 51.2407 36.3005 54.3956 33.1456C57.5505 29.9907 59.3229 25.7117 59.3229 21.25C59.3229 16.7883 57.5505 12.5093 54.3956 9.35438C51.2407 6.19947 46.9617 4.42706 42.5 4.42706ZM30.9896 21.25C30.9896 18.1972 32.2023 15.2695 34.3609 13.1109C36.5195 10.9523 39.4472 9.73956 42.5 9.73956C45.5527 9.73956 48.4804 10.9523 50.6391 13.1109C52.7977 15.2695 54.0104 18.1972 54.0104 21.25C54.0104 24.3027 52.7977 27.2304 50.6391 29.3891C48.4804 31.5477 45.5527 32.7604 42.5 32.7604C39.4472 32.7604 36.5195 31.5477 34.3609 29.3891C32.2023 27.2304 30.9896 24.3027 30.9896 21.25ZM42.5 43.3854C34.3081 43.3854 26.7573 45.2483 21.165 48.3933C15.6541 51.4958 11.5104 56.1921 11.5104 61.9791V62.3404C11.5068 66.4558 11.5033 71.6196 16.0331 75.31C18.2608 77.1233 21.381 78.416 25.5956 79.266C29.8173 80.1231 35.3246 80.5729 42.5 80.5729C49.6754 80.5729 55.1791 80.1231 59.4079 79.266C63.6225 78.416 66.7391 77.1233 68.9704 75.31C73.5002 71.6196 73.4931 66.4558 73.4896 62.3404V61.9791C73.4896 56.1921 69.3458 51.4958 63.8385 48.3933C58.2427 45.2483 50.6954 43.3854 42.5 43.3854ZM16.8229 61.9791C16.8229 58.9652 19.0258 55.6927 23.7681 53.0258C28.4289 50.405 35.0448 48.6979 42.5035 48.6979C49.9552 48.6979 56.571 50.405 61.2319 53.0258C65.9777 55.6927 68.1771 58.9652 68.1771 61.9791C68.1771 66.6116 68.0354 69.2183 65.6129 71.1875C64.3025 72.2571 62.1066 73.3018 58.3525 74.0598C54.6089 74.8177 49.4912 75.2604 42.5 75.2604C35.5087 75.2604 30.3875 74.8177 26.6475 74.0598C22.8933 73.3018 20.6975 72.2571 19.3871 71.191C16.9646 69.2183 16.8229 66.6116 16.8229 61.9791Z" fill="black"/>
</g>
<defs>
<clipPath id="clip0_866_19195">
<rect width="85" height="85" fill="white"/>
</clipPath>
</defs>
</svg>
