<svg width="85" height="85" viewBox="0 0 85 85" fill="none" xmlns="http://www.w3.org/2000/svg">
<g clip-path="url(#clip0_866_19212)">
<path d="M42.4999 7.08331C23.0208 7.08331 7.08325 23.0208 7.08325 42.5C7.08325 61.9791 23.0208 77.9166 42.4999 77.9166C61.9791 77.9166 77.9166 61.9791 77.9166 42.5C77.9166 23.0208 61.9791 7.08331 42.4999 7.08331ZM42.4999 70.8333C26.8812 70.8333 14.1666 58.1187 14.1666 42.5C14.1666 26.8812 26.8812 14.1666 42.4999 14.1666C58.1187 14.1666 70.8332 26.8812 70.8332 42.5C70.8332 58.1187 58.1187 70.8333 42.4999 70.8333ZM58.7562 26.8458L35.4166 50.1854L26.2437 41.0479L21.2499 46.0416L35.4166 60.2083L63.7499 31.875L58.7562 26.8458Z" fill="black"/>
</g>
<defs>
<clipPath id="clip0_866_19212">
<rect width="85" height="85" fill="white"/>
</clipPath>
</defs>
</svg>
