<svg width="85" height="85" viewBox="0 0 85 85" fill="none" xmlns="http://www.w3.org/2000/svg">
<path d="M17.7084 23.0208C20.6424 23.0208 23.0209 20.6423 23.0209 17.7083C23.0209 14.7743 20.6424 12.3958 17.7084 12.3958C14.7744 12.3958 12.3959 14.7743 12.3959 17.7083C12.3959 20.6423 14.7744 23.0208 17.7084 23.0208Z" fill="black" stroke="black" stroke-linecap="round"/>
<path d="M17.7084 47.8125C20.6424 47.8125 23.0209 45.434 23.0209 42.5C23.0209 39.566 20.6424 37.1875 17.7084 37.1875C14.7744 37.1875 12.3959 39.566 12.3959 42.5C12.3959 45.434 14.7744 47.8125 17.7084 47.8125Z" fill="black" stroke="black" stroke-linecap="round"/>
<path d="M17.7084 72.6041C20.6424 72.6041 23.0209 70.2256 23.0209 67.2916C23.0209 64.3576 20.6424 61.9791 17.7084 61.9791C14.7744 61.9791 12.3959 64.3576 12.3959 67.2916C12.3959 70.2256 14.7744 72.6041 17.7084 72.6041Z" fill="black" stroke="black" stroke-linecap="round"/>
<path d="M67.2917 12.3958H38.9584C36.0244 12.3958 33.6459 14.7743 33.6459 17.7083C33.6459 20.6423 36.0244 23.0208 38.9584 23.0208H67.2917C70.2257 23.0208 72.6042 20.6423 72.6042 17.7083C72.6042 14.7743 70.2257 12.3958 67.2917 12.3958Z" fill="black" stroke="black" stroke-linecap="round"/>
<path d="M67.2917 37.1875H38.9584C36.0244 37.1875 33.6459 39.566 33.6459 42.5C33.6459 45.434 36.0244 47.8125 38.9584 47.8125H67.2917C70.2257 47.8125 72.6042 45.434 72.6042 42.5C72.6042 39.566 70.2257 37.1875 67.2917 37.1875Z" fill="black" stroke="black" stroke-linecap="round"/>
<path d="M67.2917 61.9791H38.9584C36.0244 61.9791 33.6459 64.3576 33.6459 67.2916C33.6459 70.2256 36.0244 72.6041 38.9584 72.6041H67.2917C70.2257 72.6041 72.6042 70.2256 72.6042 67.2916C72.6042 64.3576 70.2257 61.9791 67.2917 61.9791Z" fill="black" stroke="black" stroke-linecap="round"/>
</svg>
