<svg width="85" height="85" viewBox="0 0 85 85" fill="none" xmlns="http://www.w3.org/2000/svg">
<g clip-path="url(#clip0_866_19210)">
<path d="M61.9791 42.5C67.1453 42.5 72.0999 44.5523 75.7529 48.2053C79.406 51.8584 81.4583 56.813 81.4583 61.9792C81.4583 67.1454 79.406 72.1 75.7529 75.753C72.0999 79.4061 67.1453 81.4583 61.9791 81.4583C56.8129 81.4583 51.8583 79.4061 48.2052 75.753C44.5522 72.1 42.4999 67.1454 42.4999 61.9792C42.4999 56.813 44.5522 51.8584 48.2052 48.2053C51.8583 44.5523 56.8129 42.5 61.9791 42.5ZM61.9791 49.5833L61.6603 49.6117C61.3065 49.6763 60.9808 49.8472 60.7264 50.1015C60.4721 50.3559 60.3012 50.6816 60.2366 51.0354L60.2083 51.3542V60.2083H51.347L51.0283 60.2402C50.6744 60.3049 50.3487 60.4757 50.0943 60.7301C49.84 60.9844 49.6691 61.3101 49.6045 61.664L49.5762 61.9827L49.6045 62.3015C49.6691 62.6553 49.84 62.9811 50.0943 63.2354C50.3487 63.4897 50.6744 63.6606 51.0283 63.7252L51.347 63.7536H60.2083V72.6183L60.2366 72.9371C60.3012 73.2909 60.4721 73.6167 60.7264 73.871C60.9808 74.1254 61.3065 74.2962 61.6603 74.3609L61.9791 74.3892L62.2978 74.3609C62.6517 74.2962 62.9774 74.1254 63.2318 73.871C63.4861 73.6167 63.6569 73.2909 63.7216 72.9371L63.7499 72.6183V63.75H72.6183L72.937 63.7252C73.2908 63.6606 73.6166 63.4897 73.8709 63.2354C74.1253 62.9811 74.2961 62.6553 74.3608 62.3015L74.3891 61.9827L74.3608 61.664C74.2959 61.3097 74.1245 60.9836 73.8695 60.7292C73.6145 60.4748 73.2879 60.3042 72.9335 60.2402L72.6147 60.2119H63.7499V51.3577L63.7216 51.039C63.6576 50.6845 63.487 50.358 63.2326 50.1029C62.9783 49.8479 62.6522 49.6766 62.2978 49.6117L61.9791 49.5833ZM49.3176 8.86835C50.7061 8.86824 52.0705 9.23093 53.2757 9.92048C54.4809 10.61 55.485 11.6025 56.1885 12.7996L59.0714 17.7119H66.4062C69.4583 17.7119 72.3855 18.9241 74.544 21.082C76.7025 23.2398 77.9156 26.1666 77.9166 29.2188V45.3688C76.3368 43.852 74.5492 42.5677 72.6076 41.5544L72.6041 29.2188C72.6041 27.575 71.9511 25.9985 70.7888 24.8362C69.6264 23.6738 68.05 23.0208 66.4062 23.0208H57.552C57.089 23.0211 56.6339 22.9003 56.232 22.6704C55.83 22.4406 55.4951 22.1096 55.2605 21.7104L51.6055 15.4877C51.3712 15.089 51.0369 14.7584 50.6357 14.5286C50.2344 14.2988 49.7801 14.1777 49.3176 14.1773H35.8487C35.4611 14.1776 35.0783 14.2628 34.7271 14.4267C34.3759 14.5907 34.0648 14.8295 33.8158 15.1265L33.5855 15.4452L29.7145 21.7529C29.4771 22.1401 29.1445 22.46 28.7482 22.6819C28.352 22.9039 27.9055 23.0206 27.4514 23.0208H18.5972C17.783 23.0204 16.9767 23.1804 16.2243 23.4916C15.4719 23.8029 14.7882 24.2593 14.2123 24.8349C13.6364 25.4105 13.1796 26.0939 12.8679 26.8461C12.5562 27.5983 12.3958 28.4045 12.3958 29.2188V62.8646C12.3958 66.2858 15.1724 69.0625 18.5937 69.0625H40.0668C40.6795 70.9502 41.526 72.7352 42.5778 74.375H18.5937C15.5409 74.375 12.6132 73.1623 10.4546 71.0037C8.29595 68.8451 7.08325 65.9174 7.08325 62.8646V29.2188C7.08325 26.166 8.29595 23.2383 10.4546 21.0797C12.6132 18.921 15.5409 17.7083 18.5937 17.7083H25.9603L29.0593 12.665C29.7718 11.5041 30.7701 10.5453 31.9587 9.87997C33.1473 9.21468 34.4865 8.86517 35.8487 8.86481L49.3176 8.86835ZM42.4999 28.3333C45.8693 28.3331 49.1522 29.4003 51.8774 31.3817C54.6026 33.3631 56.6301 36.1569 57.6689 39.3621C55.898 39.6986 54.198 40.2369 52.5937 40.9523C51.8088 38.5473 50.1913 36.5015 48.0322 35.183C45.8732 33.8644 43.3145 33.3598 40.8165 33.7599C38.3186 34.16 36.0454 35.4386 34.4062 37.3655C32.767 39.2924 31.8694 41.7411 31.8749 44.2708C31.8749 49.3354 35.4166 53.5677 40.1553 54.6373C39.5885 56.3206 39.22 58.0642 39.0574 59.8329C35.232 58.9755 31.8567 56.7384 29.5766 53.5494C27.2965 50.3604 26.2715 46.443 26.6974 42.5458C27.1234 38.6487 28.9704 35.0452 31.8856 32.424C34.8008 29.8028 38.5796 28.3478 42.4999 28.3369V28.3333Z" fill="black"/>
</g>
<defs>
<clipPath id="clip0_866_19210">
<rect width="85" height="85" fill="white"/>
</clipPath>
</defs>
</svg>
