<svg width="85" height="85" viewBox="0 0 85 85" fill="none" xmlns="http://www.w3.org/2000/svg">
<g clip-path="url(#clip0_866_19215)">
<g clip-path="url(#clip1_866_19215)">
<path d="M17.7084 31.875C17.7057 32.3411 17.795 32.8032 17.9712 33.2347C18.1475 33.6662 18.4072 34.0587 18.7354 34.3896L39.9854 55.6396C40.649 56.2992 41.5467 56.6695 42.4823 56.6695C43.418 56.6695 44.3156 56.2992 44.9792 55.6396L66.2292 34.3896C66.8094 33.7121 67.1126 32.8406 67.0782 31.9492C67.0437 31.0579 66.6742 30.2123 66.0435 29.5816C65.4127 28.9508 64.5672 28.5813 63.6758 28.5469C62.7845 28.5124 61.913 28.8156 61.2354 29.3959L42.5 48.1313L23.7646 29.3959C23.2714 28.8985 22.6417 28.5586 21.9553 28.4191C21.2689 28.2796 20.5565 28.3468 19.9083 28.6122C19.26 28.8776 18.705 29.3292 18.3134 29.91C17.9219 30.4907 17.7113 31.1746 17.7084 31.875V31.875Z" fill="#06161C"/>
</g>
</g>
<defs>
<clipPath id="clip0_866_19215">
<rect width="85" height="85" fill="white"/>
</clipPath>
<clipPath id="clip1_866_19215">
<rect width="85" height="85" fill="white" transform="translate(0 85) rotate(-90)"/>
</clipPath>
</defs>
</svg>
