<svg width="85" height="85" viewBox="0 0 85 85" fill="none" xmlns="http://www.w3.org/2000/svg">
<g clip-path="url(#clip0_866_19189)">
<path d="M53.125 17.7084C52.6589 17.7057 52.1968 17.795 51.7653 17.9712C51.3338 18.1475 50.9414 18.4072 50.6104 18.7354L29.3604 39.9854C28.7008 40.649 28.3305 41.5467 28.3305 42.4823C28.3305 43.418 28.7008 44.3156 29.3604 44.9792L50.6104 66.2292C51.2879 66.8094 52.1595 67.1126 53.0508 67.0782C53.9422 67.0437 54.7877 66.6742 55.4185 66.0435C56.0492 65.4127 56.4187 64.5672 56.4531 63.6758C56.4876 62.7845 56.1844 61.913 55.6042 61.2354L36.8687 42.5L55.6042 23.7646C56.1015 23.2714 56.4414 22.6417 56.5809 21.9553C56.7204 21.2689 56.6532 20.5565 56.3878 19.9083C56.1225 19.26 55.6708 18.705 55.0901 18.3134C54.5093 17.9219 53.8254 17.7113 53.125 17.7084V17.7084Z" fill="#06161C"/>
</g>
<defs>
<clipPath id="clip0_866_19189">
<rect width="85" height="85" fill="white"/>
</clipPath>
</defs>
</svg>
