<svg width="85" height="85" viewBox="0 0 85 85" fill="none" xmlns="http://www.w3.org/2000/svg">
<g clip-path="url(#clip0_866_19213)">
<path d="M42.5 21.25L47.5788 31.0861L58.4375 32.6639L50.4688 39.8438L53.125 50.4688L42.5 44.4922L31.875 50.4688L34.5312 39.8438L26.5625 32.6639L37.7187 31.0861L42.5 21.25Z" fill="black"/>
<path d="M47.1113 79.6875L42.5 77.0312L53.125 58.4375H69.0625C69.7604 58.4385 70.4517 58.3019 71.0967 58.0352C71.7418 57.7686 72.3278 57.3774 72.8213 56.8838C73.3149 56.3903 73.7061 55.8043 73.9727 55.1592C74.2394 54.5142 74.376 53.8229 74.375 53.125V21.25C74.376 20.5521 74.2394 19.8608 73.9727 19.2158C73.7061 18.5707 73.3149 17.9847 72.8213 17.4912C72.3278 16.9976 71.7418 16.6064 71.0967 16.3398C70.4517 16.0731 69.7604 15.9365 69.0625 15.9375H15.9375C15.2396 15.9365 14.5483 16.0731 13.9033 16.3398C13.2582 16.6064 12.6722 16.9976 12.1787 17.4912C11.6851 17.9847 11.2939 18.5707 11.0273 19.2158C10.7606 19.8608 10.624 20.5521 10.625 21.25V53.125C10.624 53.8229 10.7606 54.5142 11.0273 55.1592C11.2939 55.8043 11.6851 56.3903 12.1787 56.8838C12.6722 57.3774 13.2582 57.7686 13.9033 58.0352C14.5483 58.3019 15.2396 58.4385 15.9375 58.4375H39.8438V63.75H15.9375C13.1196 63.75 10.4171 62.6306 8.42449 60.638C6.43192 58.6454 5.3125 55.9429 5.3125 53.125V21.25C5.31215 19.8546 5.58674 18.4728 6.12057 17.1836C6.6544 15.8943 7.43702 14.7229 8.42371 13.7362C9.4104 12.7495 10.5818 11.9669 11.8711 11.4331C13.1603 10.8992 14.5421 10.6247 15.9375 10.625H69.0625C70.4579 10.6247 71.8397 10.8992 73.1289 11.4331C74.4182 11.9669 75.5896 12.7495 76.5763 13.7362C77.563 14.7229 78.3456 15.8943 78.8794 17.1836C79.4133 18.4728 79.6878 19.8546 79.6875 21.25V53.125C79.6875 55.9429 78.5681 58.6454 76.5755 60.638C74.5829 62.6306 71.8804 63.75 69.0625 63.75H56.2195L47.1113 79.6875Z" fill="black"/>
</g>
<defs>
<clipPath id="clip0_866_19213">
<rect width="85" height="85" fill="white"/>
</clipPath>
</defs>
</svg>
