<svg width="85" height="85" viewBox="0 0 85 85" fill="none" xmlns="http://www.w3.org/2000/svg">
<g clip-path="url(#clip0_866_19214)">
<path d="M74.3749 42.5C73.4356 42.5 72.5348 42.8731 71.8706 43.5373C71.2064 44.2015 70.8332 45.1024 70.8332 46.0417V67.2917C70.8332 68.231 70.4601 69.1318 69.7959 69.796C69.1317 70.4602 68.2309 70.8333 67.2916 70.8333H17.7083C16.7689 70.8333 15.8681 70.4602 15.2039 69.796C14.5397 69.1318 14.1666 68.231 14.1666 67.2917V17.7083C14.1666 16.769 14.5397 15.8682 15.2039 15.204C15.8681 14.5398 16.7689 14.1667 17.7083 14.1667H38.9583C39.8976 14.1667 40.7984 13.7935 41.4626 13.1293C42.1268 12.4652 42.4999 11.5643 42.4999 10.625C42.4999 9.6857 42.1268 8.78486 41.4626 8.12067C40.7984 7.45648 39.8976 7.08334 38.9583 7.08334H17.7083C14.8903 7.08334 12.1878 8.20276 10.1952 10.1953C8.20267 12.1879 7.08325 14.8904 7.08325 17.7083V67.2917C7.08325 70.1096 8.20267 72.8121 10.1952 74.8047C12.1878 76.7973 14.8903 77.9167 17.7083 77.9167H67.2916C70.1095 77.9167 72.812 76.7973 74.8046 74.8047C76.7972 72.8121 77.9166 70.1096 77.9166 67.2917V46.0417C77.9166 45.1024 77.5434 44.2015 76.8793 43.5373C76.2151 42.8731 75.3142 42.5 74.3749 42.5ZM21.2499 45.1917V60.2083C21.2499 61.1476 21.6231 62.0485 22.2872 62.7127C22.9514 63.3769 23.8523 63.75 24.7916 63.75H39.8082C40.2744 63.7527 40.7364 63.6634 41.1679 63.4871C41.5994 63.3109 41.9919 63.0512 42.3228 62.7229L66.8312 38.1792L76.8895 28.3333C77.2215 28.0041 77.4849 27.6124 77.6647 27.1808C77.8445 26.7492 77.9371 26.2863 77.9371 25.8188C77.9371 25.3512 77.8445 24.8883 77.6647 24.4567C77.4849 24.0251 77.2215 23.6334 76.8895 23.3042L61.8728 8.11042C61.5436 7.77847 61.1519 7.51499 60.7203 7.33518C60.2887 7.15538 59.8258 7.06281 59.3583 7.06281C58.8907 7.06281 58.4278 7.15538 57.9962 7.33518C57.5646 7.51499 57.1729 7.77847 56.8437 8.11042L46.8562 18.1333L22.277 42.6771C21.9488 43.008 21.6891 43.4005 21.5128 43.832C21.3366 44.2635 21.2472 44.7256 21.2499 45.1917ZM59.3583 15.6188L69.3812 25.6417L64.352 30.6708L54.3291 20.6479L59.3583 15.6188ZM28.3333 46.6438L49.3353 25.6417L59.3583 35.6646L38.3562 56.6667H28.3333V46.6438Z" fill="black"/>
</g>
<defs>
<clipPath id="clip0_866_19214">
<rect width="85" height="85" fill="white"/>
</clipPath>
</defs>
</svg>
