<svg width="85" height="85" viewBox="0 0 85 85" fill="none" xmlns="http://www.w3.org/2000/svg">
<path d="M27.4479 14.1667C27.4479 13.4622 27.1681 12.7866 26.6699 12.2884C26.1718 11.7903 25.4961 11.5104 24.7917 11.5104C24.0872 11.5104 23.4116 11.7903 22.9134 12.2884C22.4153 12.7866 22.1354 13.4622 22.1354 14.1667V20.5984C19.5516 20.9648 17.1587 22.1667 15.3221 24.0206C13.4854 25.8745 12.306 28.2785 11.9637 30.8656L11.6556 33.1784C11.6025 33.5679 11.5529 33.9611 11.5069 34.3542C11.4783 34.5995 11.5021 34.8482 11.5768 35.0837C11.6514 35.3191 11.7752 35.5361 11.9399 35.7202C12.1045 35.9043 12.3064 36.0514 12.5322 36.1517C12.7579 36.252 13.0024 36.3033 13.2494 36.3021H71.7542C72.0012 36.3033 72.2456 36.252 72.4714 36.1517C72.6971 36.0514 72.899 35.9043 73.0637 35.7202C73.2284 35.5361 73.3521 35.3191 73.4268 35.0837C73.5014 34.8482 73.5252 34.5995 73.4967 34.3542C73.4471 33.9646 73.401 33.5679 73.3479 33.1784L73.0398 30.8656C72.6976 28.2785 71.5181 25.8745 69.6815 24.0206C67.8448 22.1667 65.4519 20.9648 62.8681 20.5984V14.1667C62.8681 13.4622 62.5883 12.7866 62.0901 12.2884C61.592 11.7903 60.9164 11.5104 60.2119 11.5104C59.5074 11.5104 58.8318 11.7903 58.3336 12.2884C57.8355 12.7866 57.5556 13.4622 57.5556 14.1667V20.0742C47.5407 19.1823 37.4664 19.1823 27.4515 20.0742L27.4479 14.1667ZM74.1802 43.3004C74.1637 42.8463 73.9711 42.4165 73.6432 42.1018C73.3154 41.7872 72.8779 41.6125 72.4235 41.6146H12.5765C12.122 41.6125 11.6846 41.7872 11.3568 42.1018C11.0289 42.4165 10.8363 42.8463 10.8198 43.3004C10.6087 49.7097 11 56.1247 11.9885 62.4609C12.3523 64.7953 13.4812 66.9427 15.1979 68.5659C16.9147 70.1891 19.122 71.1959 21.4731 71.4283L25.6983 71.8463C36.8723 72.9442 48.1277 72.9442 59.3017 71.8463L63.5269 71.4283C65.878 71.1959 68.0853 70.1891 69.8021 68.5659C71.5188 66.9427 72.6477 64.7953 73.0115 62.4609C73.9985 56.1246 74.3898 49.7097 74.1802 43.3004Z" fill="black"/>
</svg>
