<svg width="85" height="85" viewBox="0 0 85 85" fill="none" xmlns="http://www.w3.org/2000/svg">
<path fill-rule="evenodd" clip-rule="evenodd" d="M24.7917 11.5104C25.4962 11.5104 26.1718 11.7903 26.6699 12.2884C27.1681 12.7866 27.4479 13.4622 27.4479 14.1667V20.0742C37.4628 19.1823 47.5372 19.1823 57.5521 20.0742V14.1667C57.5521 13.4622 57.832 12.7866 58.3301 12.2884C58.8282 11.7903 59.5039 11.5104 60.2084 11.5104C60.9128 11.5104 61.5885 11.7903 62.0866 12.2884C62.5848 12.7866 62.8646 13.4622 62.8646 14.1667V20.5984C65.4484 20.9648 67.8413 22.1667 69.6779 24.0206C71.5146 25.8745 72.6941 28.2785 73.0363 30.8656L73.3444 33.1784C74.6336 42.9038 74.5202 52.7638 73.0115 62.4609C72.6478 64.7953 71.5188 66.9427 69.8021 68.5659C68.0853 70.1891 65.878 71.1959 63.5269 71.4284L59.3017 71.8463C48.1277 72.9481 36.8724 72.9481 25.6984 71.8463L21.4731 71.4284C19.122 71.1959 16.9147 70.1891 15.198 68.5659C13.4812 66.9427 12.3523 64.7953 11.9886 62.4609C10.4793 52.766 10.3672 42.905 11.6556 33.1784L11.9638 30.8656C12.306 28.2785 13.4855 25.8745 15.3221 24.0206C17.1587 22.1667 19.5516 20.9648 22.1354 20.5984V14.1667C22.1354 13.4622 22.4153 12.7866 22.9134 12.2884C23.4116 11.7903 24.0872 11.5104 24.7917 11.5104ZM26.3677 25.5106C37.099 24.4517 47.9011 24.4517 58.6323 25.5106L61.8375 25.8294C64.9081 26.1304 67.3625 28.5069 67.7698 31.5634L68.0779 33.8761C68.1842 34.6836 68.2798 35.4911 68.3684 36.3021H16.6317C16.7202 35.4911 16.8159 34.6836 16.9221 33.8761L17.2302 31.5634C17.4268 30.078 18.1199 28.7028 19.1969 27.6612C20.2739 26.6195 21.6714 25.9727 23.1625 25.8259L26.3677 25.5106ZM16.2102 41.6146C15.8624 48.3082 16.2066 55.0198 17.2373 61.6427C17.4199 62.8134 17.986 63.8904 18.8469 64.7045C19.7078 65.5186 20.8147 66.0237 21.9938 66.1406L26.219 66.5586C37.0459 67.6281 47.9542 67.6281 58.7811 66.5586L63.0063 66.1406C64.1854 66.0237 65.2922 65.5186 66.1531 64.7045C67.014 63.8904 67.5802 62.8134 67.7627 61.6427C68.7969 55.0127 69.1369 48.3013 68.7898 41.6146H16.2102Z" fill="black"/>
</svg>
