<svg width="85" height="85" viewBox="0 0 85 85" fill="none" xmlns="http://www.w3.org/2000/svg">
<path d="M74.375 42.5C74.375 24.9023 60.0977 10.625 42.5 10.625C24.9023 10.625 10.625 24.9023 10.625 42.5C10.625 60.0977 24.9023 74.375 42.5 74.375C60.0977 74.375 74.375 60.0977 74.375 42.5Z" stroke="black" stroke-miterlimit="10"/>
<path d="M58.2167 25.0567L38.7597 32.8395C37.4234 33.3739 36.2096 34.1742 35.192 35.1919C34.1743 36.2096 33.374 37.4234 32.8396 38.7596L25.0568 58.2167C24.9602 58.458 24.9365 58.7224 24.9888 58.9771C25.041 59.2318 25.1668 59.4655 25.3507 59.6494C25.5345 59.8332 25.7682 59.959 26.0229 60.0113C26.2776 60.0635 26.542 60.0399 26.7833 59.9432L46.2404 52.1604C47.5767 51.626 48.7905 50.8257 49.8081 49.8081C50.8258 48.7904 51.6261 47.5766 52.1605 46.2403L59.9433 26.7833C60.0399 26.5419 60.0636 26.2775 60.0113 26.0228C59.9591 25.7682 59.8332 25.5344 59.6494 25.3506C59.4656 25.1668 59.2318 25.0409 58.9772 24.9887C58.7225 24.9365 58.4581 24.9601 58.2167 25.0567ZM42.5 46.4844C41.712 46.4844 40.9417 46.2507 40.2864 45.8129C39.6312 45.3751 39.1205 44.7528 38.819 44.0247C38.5174 43.2967 38.4385 42.4956 38.5922 41.7227C38.746 40.9498 39.1254 40.2398 39.6827 39.6826C40.2399 39.1254 40.9498 38.7459 41.7227 38.5922C42.4956 38.4384 43.2967 38.5173 44.0248 38.8189C44.7528 39.1205 45.3751 39.6312 45.8129 40.2864C46.2507 40.9416 46.4844 41.7119 46.4844 42.5C46.4844 43.5567 46.0646 44.5701 45.3174 45.3174C44.5702 46.0646 43.5568 46.4844 42.5 46.4844Z" fill="black"/>
</svg>
