<svg width="85" height="85" viewBox="0 0 85 85" fill="none" xmlns="http://www.w3.org/2000/svg">
<path d="M42.5 46.4844C44.7005 46.4844 46.4844 44.7005 46.4844 42.5C46.4844 40.2995 44.7005 38.5156 42.5 38.5156C40.2995 38.5156 38.5156 40.2995 38.5156 42.5C38.5156 44.7005 40.2995 46.4844 42.5 46.4844Z" fill="black"/>
<path d="M42.5 7.96875C23.4597 7.96875 7.96875 23.4597 7.96875 42.5C7.96875 61.5403 23.4597 77.0312 42.5 77.0312C61.5403 77.0312 77.0312 61.5403 77.0312 42.5C77.0312 23.4597 61.5403 7.96875 42.5 7.96875ZM59.9433 26.7833L52.1604 46.2403C51.6261 47.5766 50.8257 48.7904 49.8081 49.8081C48.7904 50.8257 47.5766 51.6261 46.2403 52.1604L26.7833 59.9433C26.5419 60.0399 26.2775 60.0635 26.0229 60.0113C25.7682 59.959 25.5345 59.8332 25.3506 59.6494C25.1668 59.4655 25.041 59.2318 24.9887 58.9771C24.9365 58.7225 24.9601 58.4581 25.0567 58.2167L32.8396 38.7597C33.3739 37.4234 34.1743 36.2096 35.1919 35.1919C36.2096 34.1743 37.4234 33.3739 38.7597 32.8396L58.2167 25.0567C58.4581 24.9601 58.7225 24.9365 58.9771 24.9887C59.2318 25.041 59.4655 25.1668 59.6494 25.3506C59.8332 25.5345 59.959 25.7682 60.0113 26.0229C60.0635 26.2775 60.0399 26.5419 59.9433 26.7833Z" fill="black"/>
</svg>
