<svg width="85" height="85" viewBox="0 0 85 85" fill="none" xmlns="http://www.w3.org/2000/svg">
<g clip-path="url(#clip0_866_19201)">
<path d="M62.5458 39.6667C61.7312 38.6042 60.7396 37.6833 59.8187 36.7625C57.4458 34.6375 54.7542 33.1146 52.4875 30.8833C47.2104 25.7125 46.0417 17.1771 49.4062 10.625C46.0417 11.4396 43.1021 13.2813 40.5875 15.3C31.4146 22.6667 27.8021 35.6646 32.1229 46.8208C32.2646 47.175 32.4062 47.5292 32.4062 47.9896C32.4062 48.7688 31.875 49.4771 31.1667 49.7604C30.3521 50.1146 29.5021 49.9021 28.8292 49.3354C28.6269 49.1682 28.4586 48.9639 28.3333 48.7333C24.3312 43.6688 23.6937 36.4083 26.3854 30.6C20.4708 35.4167 17.2479 43.5625 17.7083 51.2479C17.9208 53.0188 18.1333 54.7896 18.7354 56.5604C19.2312 58.6854 20.1875 60.8104 21.25 62.6875C25.075 68.8146 31.6979 73.2063 38.8167 74.0917C46.3958 75.0479 54.5062 73.6667 60.3146 68.425C66.7958 62.5458 69.0625 53.125 65.7333 45.05L65.2729 44.1292C64.5292 42.5 62.5458 39.6667 62.5458 39.6667ZM51.3542 61.9792C50.3625 62.8292 48.7333 63.75 47.4583 64.1042C43.4917 65.5208 39.525 63.5375 37.1875 61.2C41.4021 60.2083 43.9167 57.0917 44.6604 53.9396C45.2625 51.1062 44.1292 48.7688 43.6687 46.0417C43.2437 43.4208 43.3146 41.1896 44.2708 38.7458C44.9437 40.0917 45.6521 41.4375 46.5021 42.5C49.2292 46.0417 53.5146 47.6 54.4354 52.4167C54.5771 52.9125 54.6479 53.4083 54.6479 53.9396C54.7542 56.8437 53.4792 60.0313 51.3542 61.9792Z" fill="black"/>
</g>
<defs>
<clipPath id="clip0_866_19201">
<rect width="85" height="85" fill="white"/>
</clipPath>
</defs>
</svg>
