<svg width="85" height="85" viewBox="0 0 85 85" fill="none" xmlns="http://www.w3.org/2000/svg">
<g clip-path="url(#clip0_866_19186)">
<path d="M38.0375 8.65582C39.2995 7.63208 40.875 7.07336 42.5 7.07336C44.125 7.07336 45.7006 7.63208 46.9625 8.65582L73.9783 30.5433C75.2068 31.5381 76.1978 32.7945 76.8791 34.2208C77.5604 35.6472 77.9149 37.2076 77.9167 38.7883V70.8333C77.9167 72.7119 77.1704 74.5136 75.842 75.842C74.5136 77.1704 72.712 77.9166 70.8333 77.9166H56.6667C54.7881 77.9166 52.9864 77.1704 51.658 75.842C50.3296 74.5136 49.5833 72.7119 49.5833 70.8333V49.5833H35.4167V70.8333C35.4167 72.7119 34.6704 74.5136 33.342 75.842C32.0136 77.1704 30.212 77.9166 28.3333 77.9166H14.1667C12.2881 77.9166 10.4864 77.1704 9.158 75.842C7.82962 74.5136 7.08334 72.7119 7.08334 70.8333V38.7954C7.08303 37.2123 7.43649 35.6491 8.11788 34.2201C8.79928 32.7912 9.79138 31.5325 11.0217 30.5362L38.0375 8.65582ZM69.5229 36.04L42.5 14.1666L15.4771 36.04C15.0671 36.3726 14.7367 36.7926 14.5099 37.2693C14.2832 37.7461 14.1659 38.2675 14.1667 38.7954V70.8333H28.3333V49.5833C28.3333 47.7047 29.0796 45.903 30.408 44.5746C31.7364 43.2463 33.5381 42.5 35.4167 42.5H49.5833C51.462 42.5 53.2636 43.2463 54.592 44.5746C55.9204 45.903 56.6667 47.7047 56.6667 49.5833V70.8333H70.8333V38.7954C70.8341 38.2675 70.7168 37.7461 70.4901 37.2693C70.2633 36.7926 69.9329 36.3726 69.5229 36.04Z" fill="black"/>
</g>
<defs>
<clipPath id="clip0_866_19186">
<rect width="85" height="85" fill="white"/>
</clipPath>
</defs>
</svg>
