<svg width="85" height="85" viewBox="0 0 85 85" fill="none" xmlns="http://www.w3.org/2000/svg">
<g clip-path="url(#clip0_866_19185)">
<path d="M38.0375 8.65582C39.2994 7.63208 40.875 7.07336 42.5 7.07336C44.125 7.07336 45.7005 7.63208 46.9625 8.65582L73.9783 30.5433C75.2067 31.5381 76.1977 32.7945 76.8791 34.2208C77.5604 35.6472 77.9148 37.2076 77.9166 38.7883V70.8333C77.9166 72.7119 77.1704 74.5136 75.842 75.842C74.5136 77.1704 72.7119 77.9166 70.8333 77.9166H60.2083C58.3297 77.9166 56.528 77.1704 55.1996 75.842C53.8713 74.5136 53.125 72.7119 53.125 70.8333V53.125C53.125 52.1857 52.7518 51.2848 52.0876 50.6206C51.4235 49.9565 50.5226 49.5833 49.5833 49.5833H35.4166C34.4773 49.5833 33.5765 49.9565 32.9123 50.6206C32.2481 51.2848 31.875 52.1857 31.875 53.125V70.8333C31.875 72.7119 31.1287 74.5136 29.8003 75.842C28.4719 77.1704 26.6703 77.9166 24.7916 77.9166H14.1666C12.288 77.9166 10.4864 77.1704 9.15797 75.842C7.82959 74.5136 7.08331 72.7119 7.08331 70.8333V38.7954C7.083 37.2123 7.43646 35.6491 8.11785 34.2201C8.79925 32.7912 9.79135 31.5325 11.0216 30.5362L38.0375 8.65582Z" fill="black"/>
</g>
<defs>
<clipPath id="clip0_866_19185">
<rect width="85" height="85" fill="white"/>
</clipPath>
</defs>
</svg>
