<svg width="85" height="85" viewBox="0 0 85 85" fill="none" xmlns="http://www.w3.org/2000/svg">
<g clip-path="url(#clip0_866_19205)">
<path d="M42.4999 56.6667V42.5M42.4999 28.3333H42.5354M13.6354 30.5292C13.1184 28.2006 13.1978 25.7792 13.8661 23.4895C14.5345 21.1998 15.7701 19.116 17.4585 17.4311C19.1469 15.7462 21.2333 14.515 23.5244 13.8514C25.8155 13.1879 28.2371 13.1136 30.5645 13.6354C31.8456 11.6319 33.6104 9.9831 35.6962 8.84101C37.7821 7.69892 40.1219 7.10028 42.4999 7.10028C44.878 7.10028 47.2178 7.69892 49.3037 8.84101C51.3895 9.9831 53.1543 11.6319 54.4354 13.6354C56.7664 13.1113 59.1921 13.1853 61.4868 13.8504C63.7816 14.5156 65.8708 15.7503 67.5602 17.4397C69.2497 19.1291 70.4844 21.2184 71.1495 23.5131C71.8146 25.8079 71.8886 28.2336 71.3645 30.5646C73.368 31.8456 75.0168 33.6104 76.1589 35.6963C77.301 37.7821 77.8997 40.1219 77.8997 42.5C77.8997 44.8781 77.301 47.2179 76.1589 49.3037C75.0168 51.3896 73.368 53.1544 71.3645 54.4354C71.8863 56.7629 71.812 59.1844 71.1485 61.4755C70.485 63.7666 69.2537 65.8531 67.5689 67.5415C65.884 69.2299 63.8001 70.4655 61.5104 71.1338C59.2207 71.8021 56.7993 71.8815 54.4708 71.3646C53.1914 73.3758 51.4252 75.0316 49.3358 76.1788C47.2464 77.326 44.9013 77.9275 42.5177 77.9275C40.134 77.9275 37.7889 77.326 35.6995 76.1788C33.6101 75.0316 31.8439 73.3758 30.5645 71.3646C28.2371 71.8864 25.8155 71.8121 23.5244 71.1486C21.2333 70.485 19.1469 69.2538 17.4585 67.5689C15.7701 65.8841 14.5345 63.8002 13.8661 61.5105C13.1978 59.2208 13.1184 56.7994 13.6354 54.4708C11.6165 53.1932 9.9535 51.4256 8.80116 49.3326C7.64883 47.2397 7.04456 44.8892 7.04456 42.5C7.04456 40.1108 7.64883 37.7603 8.80116 35.6674C9.9535 33.5744 11.6165 31.8068 13.6354 30.5292Z" stroke="black" stroke-width="2" stroke-linecap="round" stroke-linejoin="round"/>
</g>
<defs>
<clipPath id="clip0_866_19205">
<rect width="85" height="85" fill="white"/>
</clipPath>
</defs>
</svg>
