<svg width="85" height="85" viewBox="0 0 85 85" fill="none" xmlns="http://www.w3.org/2000/svg">
<g clip-path="url(#clip0_866_19196)">
<path d="M56.6667 28.3333C59.4846 28.3333 62.1871 29.4527 64.1797 31.4453C66.1723 33.4379 67.2917 36.1404 67.2917 38.9583V67.2916C67.2917 70.1096 66.1723 72.8121 64.1797 74.8047C62.1871 76.7972 59.4846 77.9166 56.6667 77.9166H24.7917C21.9738 77.9166 19.2713 76.7972 17.2787 74.8047C15.2861 72.8121 14.1667 70.1096 14.1667 67.2916V38.9583C14.1667 36.1404 15.2861 33.4379 17.2787 31.4453C19.2713 29.4527 21.9738 28.3333 24.7917 28.3333V23.0208C24.7917 14.1666 31.875 7.08331 40.7292 7.08331C49.5834 7.08331 56.6667 14.1666 56.6667 23.0208V28.3333ZM24.7917 31.875C22.9131 31.875 21.1114 32.6213 19.783 33.9496C18.4546 35.278 17.7084 37.0797 17.7084 38.9583V67.2916C17.7084 69.1703 18.4546 70.9719 19.783 72.3003C21.1114 73.6287 22.9131 74.375 24.7917 74.375H56.6667C58.5453 74.375 60.347 73.6287 61.6754 72.3003C63.0037 70.9719 63.75 69.1703 63.75 67.2916V38.9583C63.75 37.0797 63.0037 35.278 61.6754 33.9496C60.347 32.6213 58.5453 31.875 56.6667 31.875H24.7917ZM53.125 28.3333V23.0208C53.125 19.7332 51.819 16.5803 49.4944 14.2556C47.1697 11.931 44.0168 10.625 40.7292 10.625C37.4416 10.625 34.2887 11.931 31.964 14.2556C29.6393 16.5803 28.3334 19.7332 28.3334 23.0208V28.3333H53.125ZM40.7292 49.5833C39.3202 49.5833 37.969 50.143 36.9727 51.1393C35.9764 52.1356 35.4167 53.4868 35.4167 54.8958C35.4167 56.3048 35.9764 57.656 36.9727 58.6523C37.969 59.6486 39.3202 60.2083 40.7292 60.2083C42.1381 60.2083 43.4894 59.6486 44.4857 58.6523C45.482 57.656 46.0417 56.3048 46.0417 54.8958C46.0417 53.4868 45.482 52.1356 44.4857 51.1393C43.4894 50.143 42.1381 49.5833 40.7292 49.5833ZM40.7292 46.0416C43.0775 46.0416 45.3295 46.9745 46.99 48.635C48.6505 50.2954 49.5834 52.5475 49.5834 54.8958C49.5834 57.2441 48.6505 59.4962 46.99 61.1567C45.3295 62.8171 43.0775 63.75 40.7292 63.75C38.3809 63.75 36.1288 62.8171 34.4683 61.1567C32.8079 59.4962 31.875 57.2441 31.875 54.8958C31.875 52.5475 32.8079 50.2954 34.4683 48.635C36.1288 46.9745 38.3809 46.0416 40.7292 46.0416Z" fill="black"/>
</g>
<defs>
<clipPath id="clip0_866_19196">
<rect width="85" height="85" fill="white"/>
</clipPath>
</defs>
</svg>
