<svg width="85" height="85" viewBox="0 0 85 85" fill="none" xmlns="http://www.w3.org/2000/svg">
<g clip-path="url(#clip0_866_19204)">
<path d="M10.625 35.4167V28.3333C10.625 26.4547 11.3713 24.653 12.6997 23.3247C14.028 21.9963 15.8297 21.25 17.7083 21.25H24.7917M10.625 35.4167C15.346 35.4167 24.7917 32.5833 24.7917 21.25M10.625 35.4167V49.5833M24.7917 21.25H60.2083M10.625 49.5833V56.6667C10.625 58.5453 11.3713 60.347 12.6997 61.6753C14.028 63.0037 15.8297 63.75 17.7083 63.75H24.7917M10.625 49.5833C15.346 49.5833 24.7917 52.4167 24.7917 63.75M74.375 35.4167V28.3333C74.375 26.4547 73.6287 24.653 72.3003 23.3247C70.972 21.9963 69.1703 21.25 67.2917 21.25H60.2083M74.375 35.4167C69.654 35.4167 60.2083 32.5833 60.2083 21.25M74.375 35.4167V42.5M24.7917 63.75H38.9583" stroke="black" stroke-width="2" stroke-linecap="round" stroke-linejoin="round"/>
<path d="M42.5 49.5834C46.412 49.5834 49.5833 46.412 49.5833 42.5C49.5833 38.588 46.412 35.4167 42.5 35.4167C38.5879 35.4167 35.4166 38.588 35.4166 42.5C35.4166 46.412 38.5879 49.5834 42.5 49.5834Z" stroke="black" stroke-width="2" stroke-linecap="round" stroke-linejoin="round"/>
<path d="M63.75 53.125V63.75M63.75 63.75V74.375M63.75 63.75H53.125M63.75 63.75H74.375" stroke="black" stroke-width="2" stroke-linecap="round" stroke-linejoin="round"/>
</g>
<defs>
<clipPath id="clip0_866_19204">
<rect width="85" height="85" fill="white"/>
</clipPath>
</defs>
</svg>
