<svg width="85" height="85" viewBox="0 0 85 85" fill="none" xmlns="http://www.w3.org/2000/svg">
<g clip-path="url(#clip0_866_19203)">
<path d="M47.7062 26.6688C48.2043 27.1662 48.8794 27.4456 49.5833 27.4456C50.2872 27.4456 50.9623 27.1662 51.4604 26.6688L54.0104 24.1188V60.2084C54.0104 60.9128 54.2902 61.5885 54.7884 62.0866C55.2865 62.5848 55.9622 62.8646 56.6666 62.8646C57.3711 62.8646 58.0467 62.5848 58.5449 62.0866C59.043 61.5885 59.3229 60.9128 59.3229 60.2084V24.1188L61.8729 26.6688C62.1161 26.9297 62.4093 27.1391 62.7351 27.2842C63.061 27.4294 63.4127 27.5075 63.7694 27.5138C64.126 27.5201 64.4803 27.4545 64.811 27.3209C65.1418 27.1873 65.4422 26.9884 65.6945 26.7362C65.9467 26.484 66.1456 26.1835 66.2792 25.8528C66.4128 25.522 66.4784 25.1677 66.4721 24.8111C66.4658 24.4544 66.3877 24.1027 66.2425 23.7769C66.0974 23.451 65.888 23.1578 65.6271 22.9146L58.5437 15.8313C58.0457 15.3338 57.3705 15.0544 56.6666 15.0544C55.9627 15.0544 55.2876 15.3338 54.7896 15.8313L47.7062 22.9146C47.2088 23.4127 46.9294 24.0878 46.9294 24.7917C46.9294 25.4956 47.2088 26.1707 47.7062 26.6688ZM30.9896 60.8813L33.5396 58.3313C33.7827 58.0703 34.076 57.861 34.4018 57.7158C34.7276 57.5706 35.0794 57.4926 35.436 57.4863C35.7927 57.48 36.147 57.5456 36.4777 57.6792C36.8085 57.8128 37.1089 58.0116 37.3611 58.2638C37.6134 58.5161 37.8122 58.8165 37.9458 59.1473C38.0794 59.478 38.145 59.8323 38.1387 60.189C38.1324 60.5456 38.0544 60.8974 37.9092 61.2232C37.764 61.549 37.5547 61.8423 37.2937 62.0854L30.2104 69.1688C29.7123 69.6662 29.0372 69.9456 28.3333 69.9456C27.6294 69.9456 26.9543 69.6662 26.4562 69.1688L19.3729 62.0854C19.1119 61.8423 18.9026 61.549 18.7574 61.2232C18.6122 60.8974 18.5342 60.5456 18.5279 60.189C18.5216 59.8323 18.5872 59.478 18.7208 59.1473C18.8544 58.8165 19.0532 58.5161 19.3055 58.2638C19.5577 58.0116 19.8581 57.8128 20.1889 57.6792C20.5196 57.5456 20.8739 57.48 21.2306 57.4863C21.5872 57.4926 21.939 57.5706 22.2648 57.7158C22.5906 57.861 22.8839 58.0703 23.1271 58.3313L25.6771 60.8813V24.7917C25.6771 24.0872 25.9569 23.4116 26.4551 22.9134C26.9532 22.4153 27.6288 22.1354 28.3333 22.1354C29.0378 22.1354 29.7134 22.4153 30.2116 22.9134C30.7097 23.4116 30.9896 24.0872 30.9896 24.7917V60.8813Z" fill="#4F4F4F"/>
</g>
<defs>
<clipPath id="clip0_866_19203">
<rect width="85" height="85" fill="white"/>
</clipPath>
</defs>
</svg>
