<svg width="85" height="85" viewBox="0 0 85 85" fill="none" xmlns="http://www.w3.org/2000/svg">
<path d="M24.7917 46.0416C23.8524 46.0416 22.9515 45.6685 22.2873 45.0043C21.6231 44.3401 21.25 43.4393 21.25 42.5C21.25 41.5607 21.6231 40.6598 22.2873 39.9956C22.9515 39.3315 23.8524 38.9583 24.7917 38.9583H60.2083C61.1476 38.9583 62.0485 39.3315 62.7127 39.9956C63.3769 40.6598 63.75 41.5607 63.75 42.5C63.75 43.4393 63.3769 44.3401 62.7127 45.0043C62.0485 45.6685 61.1476 46.0416 60.2083 46.0416H24.7917Z" fill="black"/>
<path d="M38.9583 24.7917C38.9583 23.8524 39.3314 22.9515 39.9956 22.2873C40.6598 21.6231 41.5606 21.25 42.4999 21.25C43.4392 21.25 44.3401 21.6231 45.0043 22.2873C45.6684 22.9515 46.0416 23.8524 46.0416 24.7917V60.2083C46.0416 61.1476 45.6684 62.0485 45.0043 62.7127C44.3401 63.3769 43.4392 63.75 42.4999 63.75C41.5606 63.75 40.6598 63.3769 39.9956 62.7127C39.3314 62.0485 38.9583 61.1476 38.9583 60.2083V24.7917Z" fill="black"/>
</svg>
