<svg width="85" height="85" viewBox="0 0 85 85" fill="none" xmlns="http://www.w3.org/2000/svg">
<g clip-path="url(#clip0_866_19209)">
<path d="M62.5105 22.4896C59.8893 19.8505 56.7716 17.7564 53.3372 16.3279C49.9028 14.8995 46.2197 14.1649 42.5001 14.1667C26.8459 14.1667 14.2021 26.8459 14.2021 42.5C14.2021 58.1542 26.8459 70.8334 42.5001 70.8334C55.7105 70.8334 66.7251 61.8021 69.8771 49.5834H62.5105C61.0515 53.7254 58.3432 57.3126 54.759 59.8501C51.1748 62.3875 46.8915 63.7502 42.5001 63.75C30.7771 63.75 21.2501 54.2229 21.2501 42.5C21.2501 30.7771 30.7771 21.25 42.5001 21.25C48.3792 21.25 53.6209 23.6938 57.4459 27.5542L46.0417 38.9584H70.8334V14.1667L62.5105 22.4896Z" fill="black"/>
</g>
<defs>
<clipPath id="clip0_866_19209">
<rect width="85" height="85" fill="white"/>
</clipPath>
</defs>
</svg>
