<svg width="85" height="85" viewBox="0 0 85 85" fill="none" xmlns="http://www.w3.org/2000/svg">
<g clip-path="url(#clip0_866_19206)">
<g clip-path="url(#clip1_866_19206)">
<path d="M28.3334 38.9584C27.3941 38.9584 26.4933 39.3315 25.8291 39.9957C25.1649 40.6599 24.7917 41.5607 24.7917 42.5C24.7917 43.4394 25.1649 44.3402 25.8291 45.0044C26.4933 45.6686 27.3941 46.0417 28.3334 46.0417H56.6667C57.6061 46.0417 58.5069 45.6686 59.1711 45.0044C59.8353 44.3402 60.2084 43.4394 60.2084 42.5C60.2084 41.5607 59.8353 40.6599 59.1711 39.9957C58.5069 39.3315 57.6061 38.9584 56.6667 38.9584H28.3334Z" fill="black"/>
<path fill-rule="evenodd" clip-rule="evenodd" d="M81.4584 42.5C81.4584 64.0157 64.0157 81.4584 42.5001 81.4584C20.9845 81.4584 3.54175 64.0157 3.54175 42.5C3.54175 20.9844 20.9845 3.54169 42.5001 3.54169C64.0157 3.54169 81.4584 20.9844 81.4584 42.5ZM74.3751 42.5C74.3751 46.6859 73.5506 50.8308 71.9488 54.6981C70.3469 58.5653 67.999 62.0792 65.0391 65.0391C62.0792 67.9989 58.5654 70.3468 54.6981 71.9487C50.8309 73.5506 46.686 74.375 42.5001 74.375C38.3142 74.375 34.1693 73.5506 30.302 71.9487C26.4348 70.3468 22.9209 67.9989 19.9611 65.0391C17.0012 62.0792 14.6533 58.5653 13.0514 54.6981C11.4496 50.8308 10.6251 46.6859 10.6251 42.5C10.6251 34.0462 13.9833 25.9387 19.9611 19.961C25.9388 13.9833 34.0463 10.625 42.5001 10.625C50.9539 10.625 59.0614 13.9833 65.0391 19.961C71.0168 25.9387 74.3751 34.0462 74.3751 42.5Z" fill="black"/>
</g>
</g>
<defs>
<clipPath id="clip0_866_19206">
<rect width="85" height="85" fill="white"/>
</clipPath>
<clipPath id="clip1_866_19206">
<rect width="85" height="85" fill="white"/>
</clipPath>
</defs>
</svg>
