<svg width="85" height="85" viewBox="0 0 85 85" fill="none" xmlns="http://www.w3.org/2000/svg">
<g clip-path="url(#clip0_866_19200)">
<path d="M31.875 17.7083C30.9357 17.7083 30.0348 18.0815 29.3706 18.7457C28.7064 19.4099 28.3333 20.3107 28.3333 21.25C28.3333 22.1893 28.7064 23.0902 29.3706 23.7543C30.0348 24.4185 30.9357 24.7917 31.875 24.7917C32.8143 24.7917 33.7151 24.4185 34.3793 23.7543C35.0435 23.0902 35.4166 22.1893 35.4166 21.25C35.4166 20.3107 35.0435 19.4099 34.3793 18.7457C33.7151 18.0815 32.8143 17.7083 31.875 17.7083ZM21.852 17.7083C22.5838 15.6346 23.9407 13.8388 25.7358 12.5686C27.531 11.2984 29.6759 10.6163 31.875 10.6163C34.074 10.6163 36.219 11.2984 38.0141 12.5686C39.8092 13.8388 41.1662 15.6346 41.8979 17.7083H67.2916C68.2309 17.7083 69.1318 18.0815 69.796 18.7457C70.4602 19.4099 70.8333 20.3107 70.8333 21.25C70.8333 22.1893 70.4602 23.0902 69.796 23.7543C69.1318 24.4185 68.2309 24.7917 67.2916 24.7917H41.8979C41.1662 26.8654 39.8092 28.6612 38.0141 29.9314C36.219 31.2016 34.074 31.8837 31.875 31.8837C29.6759 31.8837 27.531 31.2016 25.7358 29.9314C23.9407 28.6612 22.5838 26.8654 21.852 24.7917H17.7083C16.769 24.7917 15.8681 24.4185 15.204 23.7543C14.5398 23.0902 14.1666 22.1893 14.1666 21.25C14.1666 20.3107 14.5398 19.4099 15.204 18.7457C15.8681 18.0815 16.769 17.7083 17.7083 17.7083H21.852ZM53.125 38.9583C52.1857 38.9583 51.2848 39.3315 50.6206 39.9957C49.9564 40.6599 49.5833 41.5607 49.5833 42.5C49.5833 43.4393 49.9564 44.3402 50.6206 45.0043C51.2848 45.6685 52.1857 46.0417 53.125 46.0417C54.0643 46.0417 54.9651 45.6685 55.6293 45.0043C56.2935 44.3402 56.6666 43.4393 56.6666 42.5C56.6666 41.5607 56.2935 40.6599 55.6293 39.9957C54.9651 39.3315 54.0643 38.9583 53.125 38.9583ZM43.102 38.9583C43.8338 36.8846 45.1907 35.0888 46.9858 33.8186C48.781 32.5484 50.9259 31.8663 53.125 31.8663C55.324 31.8663 57.469 32.5484 59.2641 33.8186C61.0592 35.0888 62.4162 36.8846 63.1479 38.9583H67.2916C68.2309 38.9583 69.1318 39.3315 69.796 39.9957C70.4602 40.6599 70.8333 41.5607 70.8333 42.5C70.8333 43.4393 70.4602 44.3402 69.796 45.0043C69.1318 45.6685 68.2309 46.0417 67.2916 46.0417H63.1479C62.4162 48.1154 61.0592 49.9112 59.2641 51.1814C57.469 52.4516 55.324 53.1337 53.125 53.1337C50.9259 53.1337 48.781 52.4516 46.9858 51.1814C45.1907 49.9112 43.8338 48.1154 43.102 46.0417H17.7083C16.769 46.0417 15.8681 45.6685 15.204 45.0043C14.5398 44.3402 14.1666 43.4393 14.1666 42.5C14.1666 41.5607 14.5398 40.6599 15.204 39.9957C15.8681 39.3315 16.769 38.9583 17.7083 38.9583H43.102ZM31.875 60.2083C30.9357 60.2083 30.0348 60.5815 29.3706 61.2457C28.7064 61.9099 28.3333 62.8107 28.3333 63.75C28.3333 64.6893 28.7064 65.5902 29.3706 66.2544C30.0348 66.9185 30.9357 67.2917 31.875 67.2917C32.8143 67.2917 33.7151 66.9185 34.3793 66.2544C35.0435 65.5902 35.4166 64.6893 35.4166 63.75C35.4166 62.8107 35.0435 61.9099 34.3793 61.2457C33.7151 60.5815 32.8143 60.2083 31.875 60.2083ZM21.852 60.2083C22.5838 58.1346 23.9407 56.3388 25.7358 55.0686C27.531 53.7984 29.6759 53.1163 31.875 53.1163C34.074 53.1163 36.219 53.7984 38.0141 55.0686C39.8092 56.3388 41.1662 58.1346 41.8979 60.2083H67.2916C68.2309 60.2083 69.1318 60.5815 69.796 61.2457C70.4602 61.9099 70.8333 62.8107 70.8333 63.75C70.8333 64.6893 70.4602 65.5902 69.796 66.2544C69.1318 66.9185 68.2309 67.2917 67.2916 67.2917H41.8979C41.1662 69.3654 39.8092 71.1612 38.0141 72.4314C36.219 73.7016 34.074 74.3837 31.875 74.3837C29.6759 74.3837 27.531 73.7016 25.7358 72.4314C23.9407 71.1612 22.5838 69.3654 21.852 67.2917H17.7083C16.769 67.2917 15.8681 66.9185 15.204 66.2544C14.5398 65.5902 14.1666 64.6893 14.1666 63.75C14.1666 62.8107 14.5398 61.9099 15.204 61.2457C15.8681 60.5815 16.769 60.2083 17.7083 60.2083H21.852Z" fill="black"/>
</g>
<defs>
<clipPath id="clip0_866_19200">
<rect width="85" height="85" fill="white"/>
</clipPath>
</defs>
</svg>
