<svg width="85" height="85" viewBox="0 0 85 85" fill="none" xmlns="http://www.w3.org/2000/svg">
<g clip-path="url(#clip0_866_19192)">
<path d="M63.75 78.1406C60.7986 78.1406 58.2899 77.1076 56.224 75.0416C54.158 72.9757 53.125 70.467 53.125 67.5156C53.125 67.1024 53.1545 66.6738 53.2135 66.23C53.2726 65.7861 53.3611 65.3882 53.4792 65.0364L28.5104 50.5156C27.5069 51.401 26.3854 52.0952 25.1458 52.5981C23.9062 53.101 22.6076 53.3513 21.25 53.3489C18.2986 53.3489 15.7899 52.3159 13.724 50.25C11.658 48.184 10.625 45.6753 10.625 42.7239C10.625 39.7725 11.658 37.2638 13.724 35.1979C15.7899 33.1319 18.2986 32.0989 21.25 32.0989C22.6076 32.0989 23.9062 32.3504 25.1458 32.8533C26.3854 33.3562 27.5069 34.0492 28.5104 34.9323L53.4792 20.4114C53.3611 20.0572 53.2726 19.6594 53.2135 19.2179C53.1545 18.7763 53.125 18.3478 53.125 17.9323C53.125 14.9809 54.158 12.4722 56.224 10.4062C58.2899 8.34024 60.7986 7.30725 63.75 7.30725C66.7014 7.30725 69.2101 8.34024 71.276 10.4062C73.342 12.4722 74.375 14.9809 74.375 17.9323C74.375 20.8836 73.342 23.3923 71.276 25.4583C69.2101 27.5243 66.7014 28.5573 63.75 28.5573C62.3924 28.5573 61.0937 28.307 59.8542 27.8064C58.6146 27.3059 57.4931 26.6117 56.4896 25.7239L31.5208 40.2448C31.6389 40.5989 31.7274 40.9979 31.7865 41.4418C31.8455 41.8857 31.875 42.3131 31.875 42.7239C31.875 43.1371 31.8455 43.5657 31.7865 44.0095C31.7274 44.4534 31.6389 44.8513 31.5208 45.2031L56.4896 59.7239C57.4931 58.8385 58.6146 58.1455 59.8542 57.645C61.0937 57.1444 62.3924 56.8929 63.75 56.8906C66.7014 56.8906 69.2101 57.9236 71.276 59.9895C73.342 62.0555 74.375 64.5642 74.375 67.5156C74.375 70.467 73.342 72.9757 71.276 75.0416C69.2101 77.1076 66.7014 78.1406 63.75 78.1406ZM63.75 21.4739C64.7535 21.4739 65.5952 21.1339 66.2752 20.4539C66.9552 19.7739 67.294 18.9334 67.2917 17.9323C67.2917 16.9288 66.9517 16.087 66.2717 15.407C65.5917 14.727 64.7511 14.3882 63.75 14.3906C62.7465 14.3906 61.9048 14.7306 61.2248 15.4106C60.5448 16.0906 60.206 16.9311 60.2083 17.9323C60.2083 18.9357 60.5483 19.7775 61.2283 20.4575C61.9083 21.1375 62.7489 21.4763 63.75 21.4739ZM21.25 46.2656C22.2535 46.2656 23.0952 45.9256 23.7752 45.2456C24.4552 44.5656 24.794 43.725 24.7917 42.7239C24.7917 41.7204 24.4517 40.8787 23.7717 40.1987C23.0917 39.5187 22.2511 39.1799 21.25 39.1822C20.2465 39.1822 19.4048 39.5222 18.7248 40.2022C18.0448 40.8822 17.706 41.7228 17.7083 42.7239C17.7083 43.7274 18.0483 44.5691 18.7283 45.2491C19.4083 45.9291 20.2489 46.2679 21.25 46.2656ZM63.75 71.0572C64.7535 71.0572 65.5952 70.7172 66.2752 70.0372C66.9552 69.3572 67.294 68.5167 67.2917 67.5156C67.2917 66.5121 66.9517 65.6704 66.2717 64.9904C65.5917 64.3104 64.7511 63.9716 63.75 63.9739C62.7465 63.9739 61.9048 64.3139 61.2248 64.9939C60.5448 65.6739 60.206 66.5145 60.2083 67.5156C60.2083 68.5191 60.5483 69.3608 61.2283 70.0408C61.9083 70.7208 62.7489 71.0596 63.75 71.0572Z" fill="black"/>
</g>
<defs>
<clipPath id="clip0_866_19192">
<rect width="85" height="85" fill="white"/>
</clipPath>
</defs>
</svg>
