<svg width="85" height="85" viewBox="0 0 85 85" fill="none" xmlns="http://www.w3.org/2000/svg">
<path d="M13.3804 12.9448C12.7394 14.2198 12.4242 15.7994 11.7937 18.9514L9.67583 29.541C9.37567 30.9849 9.37335 32.4748 9.669 33.9196C9.96465 35.3643 10.5521 36.7336 11.3953 37.9435C12.2385 39.1533 13.3197 40.1784 14.5729 40.9559C15.826 41.7334 17.2246 42.2469 18.6831 42.4651C20.1416 42.6833 21.6292 42.6015 23.055 42.2248C24.4808 41.848 25.8147 41.1843 26.9751 40.2741C28.1354 39.364 29.0978 38.2266 29.8033 36.9316C30.5088 35.6365 30.9426 34.2112 31.0781 32.7427L31.326 30.2989C31.189 31.8545 31.3784 33.4216 31.8819 34.8998C32.3855 36.378 33.1921 37.7347 34.2503 38.8832C35.3084 40.0317 36.5947 40.9465 38.0268 41.5692C39.4589 42.1919 41.0053 42.5086 42.5668 42.4992C44.1284 42.4898 45.6708 42.1544 47.0953 41.5145C48.5198 40.8746 49.795 39.9444 50.8392 38.7832C51.8834 37.6221 52.6737 36.2557 53.1594 34.7716C53.6451 33.2874 53.8155 31.7182 53.6598 30.1644L53.9219 32.7427C54.0574 34.2112 54.4912 35.6365 55.1967 36.9316C55.9022 38.2266 56.8646 39.364 58.0249 40.2741C59.1853 41.1843 60.5192 41.848 61.945 42.2248C63.3708 42.6015 64.8584 42.6833 66.3169 42.4651C67.7754 42.2469 69.174 41.7334 70.4271 40.9559C71.6803 40.1784 72.7615 39.1533 73.6047 37.9435C74.4479 36.7336 75.0354 35.3643 75.331 33.9196C75.6267 32.4748 75.6243 30.9849 75.3242 29.541L73.2063 18.9514C72.5758 15.7994 72.2606 14.2233 71.6196 12.9448C70.9516 11.6132 70.0112 10.437 68.8592 9.49253C67.7072 8.54802 66.3695 7.8563 64.9329 7.46227C63.5517 7.08331 61.9438 7.08331 58.7279 7.08331H26.2721C23.0563 7.08331 21.4483 7.08331 20.0671 7.46227C18.6305 7.8563 17.2928 8.54802 16.1408 9.49253C14.9888 10.437 14.0484 11.6132 13.3804 12.9448ZM64.6992 47.8125C67.4676 47.8201 70.1908 47.1112 72.6042 45.7548V49.5833C72.6042 62.9389 72.6042 69.6185 68.4533 73.7658C65.1135 77.1091 60.1375 77.7573 51.3542 77.8848V65.5208C51.3542 62.2094 51.3542 60.5554 50.6423 59.3229C50.176 58.5154 49.5055 57.8448 48.6979 57.3785C47.4654 56.6666 45.8115 56.6666 42.5 56.6666C39.1885 56.6666 37.5346 56.6666 36.3021 57.3785C35.4945 57.8448 34.824 58.5154 34.3577 59.3229C33.6458 60.5554 33.6458 62.2094 33.6458 65.5208V77.8848C24.8625 77.7573 19.8865 77.1056 16.5467 73.7658C12.3958 69.6185 12.3958 62.9389 12.3958 49.5833V45.7548C14.8092 47.1112 17.5324 47.8201 20.3008 47.8125C24.3938 47.8154 28.3344 46.2604 31.3225 43.4633C34.3679 46.2686 38.3595 47.8217 42.5 47.8125C46.6392 47.8204 50.6293 46.2674 53.674 43.4633C56.6647 46.2629 60.6096 47.8181 64.7063 47.8125H64.6992Z" fill="black"/>
</svg>
