<svg width="85" height="85" viewBox="0 0 85 85" fill="none" xmlns="http://www.w3.org/2000/svg">
<g clip-path="url(#clip0_866_19198)">
<path d="M30.1042 67.2917C29.0535 67.2917 28.0264 67.6032 27.1527 68.187C26.2791 68.7707 25.5982 69.6004 25.1961 70.5712C24.794 71.5419 24.6888 72.6101 24.8938 73.6406C25.0988 74.6711 25.6047 75.6177 26.3477 76.3607C27.0907 77.1036 28.0373 77.6096 29.0678 77.8146C30.0983 78.0196 31.1665 77.9144 32.1372 77.5123C33.1079 77.1102 33.9376 76.4293 34.5214 75.5556C35.1051 74.682 35.4167 73.6549 35.4167 72.6042C35.4167 71.1952 34.857 69.8439 33.8607 68.8477C32.8644 67.8514 31.5132 67.2917 30.1042 67.2917ZM67.2917 56.6667H24.7917C23.8524 56.6667 22.9516 56.2935 22.2874 55.6293C21.6232 54.9651 21.25 54.0643 21.25 53.125C21.25 52.1857 21.6232 51.2849 22.2874 50.6207C22.9516 49.9565 23.8524 49.5833 24.7917 49.5833H54.864C57.1714 49.5761 59.4143 48.8212 61.2564 47.4318C63.0986 46.0423 64.4407 44.0932 65.0817 41.8767L70.6953 22.2204C70.8453 21.6936 70.8712 21.1392 70.7708 20.6008C70.6704 20.0623 70.4464 19.5545 70.1166 19.1172C69.7867 18.6799 69.36 18.3251 68.8698 18.0806C68.3796 17.8362 67.8395 17.7087 67.2917 17.7083H23.8709C23.1371 15.6436 21.7842 13.8555 19.9969 12.5878C18.2095 11.3202 16.0746 10.6348 13.8834 10.625H10.625C9.68573 10.625 8.7849 10.9981 8.1207 11.6623C7.45651 12.3265 7.08337 13.2274 7.08337 14.1667C7.08337 15.106 7.45651 16.0068 8.1207 16.671C8.7849 17.3352 9.68573 17.7083 10.625 17.7083H13.8869C14.656 17.7108 15.4036 17.9623 16.0178 18.4252C16.632 18.888 17.0797 19.5374 17.294 20.276L17.843 22.2062V22.224L23.6548 42.5602C20.9496 42.8494 18.4584 44.1654 16.6946 46.2369C14.9308 48.3083 14.0288 50.9775 14.1746 53.6942C14.3203 56.411 15.5027 58.9683 17.478 60.8392C19.4533 62.71 22.0711 63.7519 24.7917 63.75H67.2917C68.231 63.75 69.1319 63.3769 69.7961 62.7127C70.4602 62.0485 70.8334 61.1476 70.8334 60.2083C70.8334 59.269 70.4602 58.3682 69.7961 57.704C69.1319 57.0398 68.231 56.6667 67.2917 56.6667ZM62.5955 24.7917L58.2746 39.9287C58.0608 40.6686 57.6128 41.3192 56.9979 41.7828C56.3829 42.2464 55.6341 42.4981 54.864 42.5H31.0038L30.1007 39.3408L25.9463 24.7917H62.5955ZM58.4375 67.2917C57.3868 67.2917 56.3597 67.6032 55.4861 68.187C54.6124 68.7707 53.9315 69.6004 53.5294 70.5712C53.1273 71.5419 53.0221 72.6101 53.2271 73.6406C53.4321 74.6711 53.9381 75.6177 54.681 76.3607C55.424 77.1036 56.3706 77.6096 57.4011 77.8146C58.4317 78.0196 59.4998 77.9144 60.4705 77.5123C61.4413 77.1102 62.271 76.4293 62.8547 75.5556C63.4385 74.682 63.75 73.6549 63.75 72.6042C63.75 71.1952 63.1903 69.8439 62.194 68.8477C61.1978 67.8514 59.8465 67.2917 58.4375 67.2917Z" fill="#067435"/>
</g>
<defs>
<clipPath id="clip0_866_19198">
<rect width="85" height="85" fill="white"/>
</clipPath>
</defs>
</svg>
