<svg width="85" height="85" viewBox="0 0 85 85" fill="none" xmlns="http://www.w3.org/2000/svg">
<g clip-path="url(#clip0_866_19199)">
<path d="M24.7916 24.7917V17.7083C24.7917 15.6573 25.3854 13.6501 26.5011 11.929C27.6168 10.2079 29.2067 8.84658 31.0791 8.00926C32.9515 7.17194 35.0261 6.89445 37.0527 7.21029C39.0793 7.52613 40.9712 8.42179 42.5 9.78916C44.0287 8.42179 45.9206 7.52613 47.9472 7.21029C49.9738 6.89445 52.0485 7.17194 53.9208 8.00926C55.7932 8.84658 57.3832 10.2079 58.4989 11.929C59.6145 13.6501 60.2082 15.6573 60.2083 17.7083V24.7917H65.5208C66.9298 24.7917 68.281 25.3514 69.2773 26.3477C70.2736 27.3439 70.8333 28.6952 70.8333 30.1042V45.3971L67.4014 42.0183C66.8323 41.4567 66.2014 40.9612 65.5208 40.5414V30.1042H51.3895V38.9654H49.5868C48.3579 38.9654 47.1785 39.1779 46.077 39.5604V30.1042H19.4791V63.75C19.4791 64.9127 19.7081 66.0641 20.1531 67.1383C20.5981 68.2126 21.2503 69.1886 22.0725 70.0108C22.8946 70.833 23.8707 71.4852 24.945 71.9302C26.0192 72.3751 27.1705 72.6042 28.3333 72.6042H47.1041L52.3245 77.9167H28.3333C24.5761 77.9167 20.9727 76.4241 18.3159 73.7673C15.6592 71.1106 14.1666 67.5072 14.1666 63.75V30.1042C14.1666 28.6952 14.7263 27.3439 15.7226 26.3477C16.7189 25.3514 18.0702 24.7917 19.4791 24.7917H24.7916ZM40.7291 24.7917V17.7083C40.7291 16.2994 40.1694 14.9481 39.1731 13.9518C38.1768 12.9555 36.8256 12.3958 35.4166 12.3958C34.0077 12.3958 32.6564 12.9555 31.6601 13.9518C30.6638 14.9481 30.1041 16.2994 30.1041 17.7083V24.7917H40.7291ZM46.0416 24.7917H54.8958V17.7083C54.8959 16.6148 54.5585 15.5478 53.9297 14.6532C53.301 13.7585 52.4114 13.0796 51.3825 12.7093C50.3536 12.3389 49.2354 12.2951 48.1807 12.5838C47.1259 12.8726 46.186 13.4797 45.4891 14.3225C45.8468 15.385 46.0416 16.5254 46.0416 17.7083V24.7917ZM44.5258 64.9258L58.696 79.3475C61.462 82.1667 66.006 82.1808 68.7968 79.39L79.397 68.7792C80.0562 68.1204 80.5784 67.3376 80.9334 66.4759C81.2883 65.6142 81.4691 64.6908 81.4651 63.7588C81.4612 62.8269 81.2726 61.905 80.9104 61.0464C80.5481 60.1877 80.0193 59.4094 79.3545 58.7562L64.9187 44.5435C63.5872 43.2328 61.7934 42.4987 59.925 42.5L49.5904 42.5071C47.713 42.5052 45.9116 43.2487 44.5821 44.5742C43.2526 45.8997 42.5037 47.6989 42.5 49.5762V59.9781C42.5 61.8269 43.226 63.6048 44.5258 64.9258ZM56.6525 53.125C56.6527 53.5901 56.5613 54.0507 56.3835 54.4805C56.2058 54.9102 55.9451 55.3008 55.6164 55.6298C55.2877 55.9589 54.8974 56.22 54.4678 56.3982C54.0382 56.5764 53.5777 56.6682 53.1126 56.6684C52.1733 56.6689 51.2722 56.2962 50.6077 55.6324C49.9432 54.9685 49.5696 54.0678 49.5691 53.1285C49.5687 52.1892 49.9413 51.2882 50.6052 50.6237C51.2691 49.9592 52.1697 49.5856 53.109 49.5851C54.0483 49.5846 54.9494 49.9573 55.6139 50.6212C56.2784 51.285 56.652 52.1857 56.6525 53.125Z" fill="black"/>
</g>
<defs>
<clipPath id="clip0_866_19199">
<rect width="85" height="85" fill="white"/>
</clipPath>
</defs>
</svg>
