<svg width="85" height="85" viewBox="0 0 85 85" fill="none" xmlns="http://www.w3.org/2000/svg">
<path d="M12.3959 38.9583V49.5833C12.3959 62.9389 12.3959 69.6185 16.5467 73.7658C20.694 77.9166 27.3736 77.9166 40.7292 77.9166H44.2709C57.6265 77.9166 64.3061 77.9166 68.4534 73.7658C72.6042 69.6185 72.6042 62.9389 72.6042 49.5833V38.9583" stroke="black" stroke-width="1.5"/>
<path d="M33.6459 7.08331H51.3542L53.6634 30.1644C53.8155 31.7219 53.64 33.294 53.1482 34.7796C52.6565 36.2652 51.8592 37.6315 50.8078 38.7906C49.7564 39.9497 48.4741 40.876 47.0433 41.5099C45.6125 42.1437 44.0649 42.4712 42.5 42.4712C40.9351 42.4712 39.3875 42.1437 37.9567 41.5099C36.5259 40.876 35.2436 39.9497 34.1922 38.7906C33.1408 37.6315 32.3436 36.2652 31.8518 34.7796C31.36 33.294 31.1846 31.7219 31.3367 30.1644L33.6459 7.08331Z" stroke="black" stroke-width="1.5"/>
<path d="M11.7937 18.9514C12.4242 15.7994 12.7394 14.2233 13.3804 12.9448C14.0484 11.6132 14.9888 10.437 16.1408 9.49253C17.2928 8.54802 18.6305 7.8563 20.0671 7.46227C21.4483 7.08331 23.0563 7.08331 26.2721 7.08331H33.6458L31.0781 32.7427C30.9426 34.2112 30.5088 35.6365 29.8033 36.9316C29.0978 38.2266 28.1354 39.364 26.9751 40.2741C25.8147 41.1843 24.4808 41.848 23.055 42.2248C21.6292 42.6015 20.1416 42.6833 18.6831 42.4651C17.2246 42.2469 15.826 41.7334 14.5729 40.9559C13.3197 40.1784 12.2385 39.1533 11.3953 37.9435C10.5521 36.7336 9.96465 35.3643 9.669 33.9196C9.37335 32.4748 9.37567 30.9849 9.67583 29.541L11.7937 18.9514ZM73.2063 18.9514C72.5758 15.7994 72.2606 14.2233 71.6196 12.9448C70.9516 11.6132 70.0112 10.437 68.8592 9.49253C67.7072 8.54802 66.3695 7.8563 64.9329 7.46227C63.5517 7.08331 61.9438 7.08331 58.7279 7.08331H51.3542L53.9219 32.7427C54.0574 34.2112 54.4912 35.6365 55.1967 36.9316C55.9022 38.2266 56.8646 39.364 58.0249 40.2741C59.1853 41.1843 60.5192 41.848 61.945 42.2248C63.3708 42.6015 64.8584 42.6833 66.3169 42.4651C67.7754 42.2469 69.174 41.7334 70.4271 40.9559C71.6803 40.1784 72.7615 39.1533 73.6047 37.9435C74.4479 36.7336 75.0354 35.3643 75.331 33.9196C75.6267 32.4748 75.6243 30.9849 75.3242 29.541L73.2063 18.9514Z" stroke="black" stroke-width="1.5"/>
<path d="M33.6459 76.1458V65.5208C33.6459 62.2093 33.6459 60.5554 34.3577 59.3229C34.824 58.5153 35.4946 57.8448 36.3021 57.3785C37.5346 56.6666 39.1886 56.6666 42.5 56.6666C45.8115 56.6666 47.4655 56.6666 48.698 57.3785C49.5055 57.8448 50.1761 58.5153 50.6423 59.3229C51.3542 60.5554 51.3542 62.2093 51.3542 65.5208V76.1458" stroke="black" stroke-width="1.5" stroke-linecap="round"/>
</svg>
