<svg width="85" height="85" viewBox="0 0 85 85" fill="none" xmlns="http://www.w3.org/2000/svg">
<g clip-path="url(#clip0_866_19193)">
<path d="M37.9069 16.5462V17.819H50.6348V16.5462C50.6348 14.8584 49.9643 13.2397 48.7708 12.0462C47.5773 10.8528 45.9586 10.1823 44.2708 10.1823C42.583 10.1823 40.9643 10.8528 39.7708 12.0462C38.5774 13.2397 37.9069 14.8584 37.9069 16.5462ZM32.8157 17.819V16.5462C32.8157 13.5081 34.0226 10.5945 36.1709 8.44624C38.3191 6.298 41.2327 5.09113 44.2708 5.09113C47.3089 5.09113 50.2225 6.298 52.3708 8.44624C54.519 10.5945 55.7259 13.5081 55.7259 16.5462V17.819H74.8177C75.4928 17.819 76.1403 18.0872 76.6177 18.5646C77.0951 19.042 77.3633 19.6894 77.3633 20.3646C77.3633 21.0397 77.0951 21.6872 76.6177 22.1646C76.1403 22.6419 75.4928 22.9101 74.8177 22.9101H70.979L66.1628 65.0852C65.8076 68.1913 64.3217 71.058 61.9884 73.1387C59.6551 75.2194 56.6376 76.3686 53.5113 76.3672H35.0304C31.9041 76.3686 28.8866 75.2194 26.5533 73.1387C24.2199 71.058 22.734 68.1913 22.3789 65.0852L17.5627 22.9101H13.7239C13.0488 22.9101 12.4013 22.6419 11.924 22.1646C11.4466 21.6872 11.1784 21.0397 11.1784 20.3646C11.1784 19.6894 11.4466 19.042 11.924 18.5646C12.4013 18.0872 13.0488 17.819 13.7239 17.819H32.8157ZM27.4395 64.5048C27.652 66.3679 28.5426 68.0878 29.9416 69.3365C31.3406 70.5852 33.1501 71.2756 35.0253 71.276H53.5138C55.389 71.2756 57.1985 70.5852 58.5975 69.3365C59.9965 68.0878 60.8871 66.3679 61.0996 64.5048L65.8573 22.9101H22.6869L27.4395 64.5048ZM36.6341 31.8196C37.3092 31.8196 37.9567 32.0878 38.4341 32.5652C38.9115 33.0426 39.1797 33.6901 39.1797 34.3652V59.8209C39.1797 60.4961 38.9115 61.1435 38.4341 61.6209C37.9567 62.0983 37.3092 62.3665 36.6341 62.3665C35.959 62.3665 35.3115 62.0983 34.8341 61.6209C34.3567 61.1435 34.0885 60.4961 34.0885 59.8209V34.3652C34.0885 33.6901 34.3567 33.0426 34.8341 32.5652C35.3115 32.0878 35.959 31.8196 36.6341 31.8196ZM54.4531 34.3652C54.4531 33.6901 54.1849 33.0426 53.7075 32.5652C53.2301 32.0878 52.5827 31.8196 51.9075 31.8196C51.2324 31.8196 50.5849 32.0878 50.1075 32.5652C49.6302 33.0426 49.362 33.6901 49.362 34.3652V59.8209C49.362 60.4961 49.6302 61.1435 50.1075 61.6209C50.5849 62.0983 51.2324 62.3665 51.9075 62.3665C52.5827 62.3665 53.2301 62.0983 53.7075 61.6209C54.1849 61.1435 54.4531 60.4961 54.4531 59.8209V34.3652Z" fill="black"/>
</g>
<defs>
<clipPath id="clip0_866_19193">
<rect width="85" height="85" fill="white"/>
</clipPath>
</defs>
</svg>
