<svg width="85" height="85" viewBox="0 0 85 85" fill="none" xmlns="http://www.w3.org/2000/svg">
<path d="M51.1012 44.0178C51.1012 42.0164 50.5077 40.06 49.3958 38.396C48.2839 36.7319 46.7036 35.4349 44.8545 34.669C43.0055 33.9031 40.9709 33.7027 39.008 34.0932C37.0451 34.4836 35.2421 35.4474 33.8269 36.8626C32.4117 38.2777 31.448 40.0808 31.0575 42.0437C30.6671 44.0066 30.8675 46.0412 31.6334 47.8902C32.3993 49.7392 33.6962 51.3196 35.3603 52.4315C37.0244 53.5434 38.9808 54.1369 40.9821 54.1369C43.6659 54.1369 46.2397 53.0707 48.1374 51.173C50.0351 49.2754 51.1012 46.7015 51.1012 44.0178ZM35.9226 44.0178C35.9226 43.0171 36.2194 42.0389 36.7753 41.2069C37.3313 40.3749 38.1214 39.7264 39.046 39.3434C39.9705 38.9605 40.9878 38.8603 41.9692 39.0555C42.9507 39.2507 43.8522 39.7326 44.5598 40.4402C45.2674 41.1478 45.7492 42.0493 45.9445 43.0307C46.1397 44.0122 46.0395 45.0295 45.6565 45.954C45.2736 46.8785 44.6251 47.6687 43.7931 48.2246C42.961 48.7806 41.9828 49.0773 40.9821 49.0773C39.6403 49.0773 38.3534 48.5443 37.4045 47.5954C36.4557 46.6466 35.9226 45.3597 35.9226 44.0178ZM51.1012 18.7202C51.1012 16.7188 50.5077 14.7624 49.3958 13.0983C48.2839 11.4343 46.7036 10.1373 44.8545 9.37141C43.0055 8.60552 40.9709 8.40513 39.008 8.79557C37.0451 9.18602 35.2421 10.1498 33.8269 11.5649C32.4117 12.9801 31.448 14.7832 31.0575 16.7461C30.6671 18.709 30.8675 20.7436 31.6334 22.5926C32.3993 24.4416 33.6962 26.022 35.3603 27.1339C37.0244 28.2458 38.9808 28.8392 40.9821 28.8392C43.6659 28.8392 46.2397 27.7731 48.1374 25.8754C50.0351 23.9777 51.1012 21.4039 51.1012 18.7202ZM35.9226 18.7202C35.9226 17.7195 36.2194 16.7413 36.7753 15.9093C37.3313 15.0772 38.1214 14.4287 39.046 14.0458C39.9705 13.6629 40.9878 13.5627 41.9692 13.7579C42.9507 13.9531 43.8522 14.435 44.5598 15.1426C45.2674 15.8501 45.7492 16.7517 45.9445 17.7331C46.1397 18.7146 46.0395 19.7319 45.6565 20.6564C45.2736 21.5809 44.6251 22.3711 43.7931 22.927C42.961 23.483 41.9828 23.7797 40.9821 23.7797C39.6403 23.7797 38.3534 23.2467 37.4045 22.2978C36.4557 21.349 35.9226 20.0621 35.9226 18.7202ZM51.1012 69.3154C51.1012 67.3141 50.5077 65.3577 49.3958 63.6936C48.2839 62.0295 46.7036 60.7325 44.8545 59.9666C43.0055 59.2008 40.9709 59.0004 39.008 59.3908C37.0451 59.7813 35.2421 60.745 33.8269 62.1602C32.4117 63.5754 31.448 65.3784 31.0575 67.3413C30.6671 69.3042 30.8675 71.3388 31.6334 73.1878C32.3993 75.0368 33.6962 76.6172 35.3603 77.7291C37.0244 78.841 38.9808 79.4345 40.9821 79.4345C43.6659 79.4345 46.2397 78.3684 48.1374 76.4707C50.0351 74.573 51.1012 71.9992 51.1012 69.3154ZM35.9226 69.3154C35.9226 68.3147 36.2194 67.3365 36.7753 66.5045C37.3313 65.6725 38.1214 65.024 39.0459 64.641C39.9705 64.2581 40.9878 64.1579 41.9692 64.3531C42.9507 64.5483 43.8522 65.0302 44.5598 65.7378C45.2674 66.4454 45.7492 67.3469 45.9445 68.3284C46.1397 69.3098 46.0395 70.3271 45.6565 71.2516C45.2736 72.1761 44.6251 72.9663 43.7931 73.5223C42.961 74.0782 41.9828 74.3749 40.9821 74.3749C39.6403 74.3749 38.3534 73.8419 37.4045 72.893C36.4557 71.9442 35.9226 70.6573 35.9226 69.3154Z" fill="black"/>
</svg>
