<svg width="85" height="85" viewBox="0 0 85 85" fill="none" xmlns="http://www.w3.org/2000/svg">
<g clip-path="url(#clip0_866_19208)">
<path fill-rule="evenodd" clip-rule="evenodd" d="M42.5 29.2188C38.9776 29.2188 35.5995 30.618 33.1087 33.1087C30.618 35.5995 29.2188 38.9776 29.2188 42.5C29.2188 46.0224 30.618 49.4005 33.1087 51.8913C35.5995 54.382 38.9776 55.7813 42.5 55.7813C46.0224 55.7813 49.4005 54.382 51.8913 51.8913C54.382 49.4005 55.7813 46.0224 55.7813 42.5C55.7813 38.9776 54.382 35.5995 51.8913 33.1087C49.4005 30.618 46.0224 29.2188 42.5 29.2188ZM34.5313 42.5C34.5313 40.3866 35.3708 38.3597 36.8652 36.8652C38.3597 35.3708 40.3866 34.5313 42.5 34.5313C44.6134 34.5313 46.6403 35.3708 48.1348 36.8652C49.6292 38.3597 50.4688 40.3866 50.4688 42.5C50.4688 44.6134 49.6292 46.6403 48.1348 48.1348C46.6403 49.6292 44.6134 50.4688 42.5 50.4688C40.3866 50.4688 38.3597 49.6292 36.8652 48.1348C35.3708 46.6403 34.5313 44.6134 34.5313 42.5Z" fill="black"/>
<path fill-rule="evenodd" clip-rule="evenodd" d="M42.4999 11.5104C26.5128 11.5104 15.7426 21.0871 9.49159 29.2081L9.38179 29.3534C7.96513 31.1915 6.66534 32.8809 5.78346 34.8784C4.83784 37.0211 4.427 39.355 4.427 42.5C4.427 45.645 4.83784 47.979 5.78346 50.1217C6.66888 52.1192 7.96867 53.8121 9.38179 55.6467L9.49513 55.7919C15.7426 63.9129 26.5128 73.4896 42.4999 73.4896C58.487 73.4896 69.2572 63.9129 75.5082 55.7919L75.618 55.6467C77.0347 53.8121 78.3345 52.1192 79.2164 50.1217C80.162 47.979 80.5728 45.645 80.5728 42.5C80.5728 39.355 80.162 37.0211 79.2164 34.8784C78.331 32.8809 77.0312 31.1915 75.618 29.3534L75.5047 29.2081C69.2572 21.0871 58.487 11.5104 42.4999 11.5104ZM13.7062 32.4488C19.472 24.9511 28.8645 16.8229 42.4999 16.8229C56.1353 16.8229 65.5243 24.9511 71.2937 32.4488C72.852 34.4675 73.7587 35.6717 74.3572 37.0246C74.9168 38.2925 75.2603 39.8402 75.2603 42.5C75.2603 45.1598 74.9168 46.7075 74.3572 47.9754C73.7587 49.3284 72.8485 50.5325 71.2972 52.5513C65.5208 60.049 56.1353 68.1771 42.4999 68.1771C28.8645 68.1771 19.4755 60.049 13.7062 52.5513C12.1478 50.5325 11.2412 49.3284 10.6426 47.9754C10.083 46.7075 9.7395 45.1598 9.7395 42.5C9.7395 39.8402 10.083 38.2925 10.6426 37.0246C11.2412 35.6717 12.1549 34.4675 13.7062 32.4488Z" fill="black"/>
</g>
<defs>
<clipPath id="clip0_866_19208">
<rect width="85" height="85" fill="white"/>
</clipPath>
</defs>
</svg>
