<svg width="85" height="85" viewBox="0 0 85 85" fill="none" xmlns="http://www.w3.org/2000/svg">
<g clip-path="url(#clip0_866_19197)">
<path d="M38.0021 17.9669C39.4951 17.7937 40.9969 17.7074 42.5 17.7084C59.0183 17.7084 72.25 27.9898 77.9166 42.5C76.5449 46.0296 74.6916 49.3525 72.4094 52.3742M23.0916 23.0882C15.8666 27.4975 10.2708 34.3294 7.08331 42.5C12.75 57.0103 25.9816 67.2917 42.5 67.2917C49.3429 67.3278 56.0617 65.4642 61.9083 61.9084M34.9916 34.9917C34.0049 35.9784 33.2222 37.1498 32.6882 38.439C32.1542 39.7282 31.8794 41.1099 31.8794 42.5054C31.8794 43.9008 32.1542 45.2825 32.6882 46.5717C33.2222 47.8609 34.0049 49.0323 34.9916 50.019C35.9784 51.0057 37.1497 51.7884 38.4389 52.3224C39.7281 52.8564 41.1099 53.1313 42.5053 53.1313C43.9007 53.1313 45.2825 52.8564 46.5716 52.3224C47.8608 51.7884 49.0322 51.0057 50.0189 50.019" stroke="black" stroke-width="1.5" stroke-linecap="round" stroke-linejoin="round"/>
<path d="M14.1666 14.1667L70.8333 70.8334" stroke="black" stroke-width="1.5" stroke-linecap="round"/>
</g>
<defs>
<clipPath id="clip0_866_19197">
<rect width="85" height="85" fill="white"/>
</clipPath>
</defs>
</svg>
