<svg width="85" height="85" viewBox="0 0 85 85" fill="none" xmlns="http://www.w3.org/2000/svg">
<g clip-path="url(#clip0_866_19191)">
<path d="M42.5 73.4896C34.281 73.4896 26.3987 70.2246 20.587 64.4129C14.7754 58.6012 11.5104 50.7189 11.5104 42.5C11.5104 34.281 14.7754 26.3987 20.587 20.587C26.3987 14.7754 34.281 11.5104 42.5 11.5104C50.7189 11.5104 58.6013 14.7754 64.4129 20.587C70.2246 26.3987 73.4896 34.281 73.4896 42.5C73.4896 50.7189 70.2246 58.6012 64.4129 64.4129C58.6013 70.2246 50.7189 73.4896 42.5 73.4896ZM42.5 77.9166C51.8931 77.9166 60.9014 74.1853 67.5434 67.5433C74.1853 60.9014 77.9167 51.8931 77.9167 42.5C77.9167 33.1069 74.1853 24.0985 67.5434 17.4566C60.9014 10.8147 51.8931 7.08331 42.5 7.08331C33.1069 7.08331 24.0985 10.8147 17.4566 17.4566C10.8147 24.0985 7.08333 33.1069 7.08333 42.5C7.08333 51.8931 10.8147 60.9014 17.4566 67.5433C24.0985 74.1853 33.1069 77.9166 42.5 77.9166Z" fill="black"/>
<path d="M27.6516 27.6515C27.8572 27.4454 28.1014 27.2818 28.3704 27.1703C28.6393 27.0587 28.9276 27.0012 29.2187 27.0012C29.5099 27.0012 29.7982 27.0587 30.0671 27.1703C30.3361 27.2818 30.5803 27.4454 30.7859 27.6515L42.5 39.37L54.2141 27.6515C54.4199 27.4457 54.6642 27.2825 54.9331 27.1711C55.202 27.0597 55.4902 27.0024 55.7812 27.0024C56.0723 27.0024 56.3605 27.0597 56.6294 27.1711C56.8983 27.2825 57.1426 27.4457 57.3484 27.6515C57.5542 27.8573 57.7175 28.1017 57.8289 28.3706C57.9403 28.6395 57.9976 28.9277 57.9976 29.2187C57.9976 29.5098 57.9403 29.798 57.8289 30.0669C57.7175 30.3358 57.5542 30.5801 57.3484 30.7859L45.6299 42.5L57.3484 54.214C57.5542 54.4198 57.7175 54.6642 57.8289 54.9331C57.9403 55.202 57.9976 55.4902 57.9976 55.7812C57.9976 56.0723 57.9403 56.3605 57.8289 56.6294C57.7175 56.8983 57.5542 57.1426 57.3484 57.3484C57.1426 57.5542 56.8983 57.7175 56.6294 57.8288C56.3605 57.9402 56.0723 57.9975 55.7812 57.9975C55.4902 57.9975 55.202 57.9402 54.9331 57.8288C54.6642 57.7175 54.4199 57.5542 54.2141 57.3484L42.5 45.6299L30.7859 57.3484C30.5801 57.5542 30.3358 57.7175 30.0669 57.8288C29.798 57.9402 29.5098 57.9975 29.2187 57.9975C28.9277 57.9975 28.6395 57.9402 28.3706 57.8288C28.1017 57.7175 27.8574 57.5542 27.6516 57.3484C27.4458 57.1426 27.2825 56.8983 27.1711 56.6294C27.0597 56.3605 27.0024 56.0723 27.0024 55.7812C27.0024 55.4902 27.0597 55.202 27.1711 54.9331C27.2825 54.6642 27.4458 54.4198 27.6516 54.214L39.37 42.5L27.6516 30.7859C27.4454 30.5803 27.2819 30.336 27.1703 30.0671C27.0587 29.7982 27.0013 29.5099 27.0013 29.2187C27.0013 28.9276 27.0587 28.6393 27.1703 28.3703C27.2819 28.1014 27.4454 27.8571 27.6516 27.6515Z" fill="black"/>
</g>
<defs>
<clipPath id="clip0_866_19191">
<rect width="70.8333" height="70.8333" fill="white" transform="translate(7.08333 7.08331)"/>
</clipPath>
</defs>
</svg>
